<mxfile host="app.diagrams.net" modified="2023-07-04T08:01:32.441Z" agent="Mozilla/5.0 (Windows NT 10.0; Win64; x64) AppleWebKit/537.36 (KHTML, like Gecko) Chrome/114.0.0.0 Safari/537.36" etag="R7RONqqkAhBFIH7XPRWA" version="21.5.2" type="github">
  <diagram id="R9L9YIHB2TKeejn9IF7J" name="Page-1">
    <mxGraphModel dx="1735" dy="201" grid="1" gridSize="10" guides="1" tooltips="1" connect="1" arrows="1" fold="1" page="1" pageScale="1" pageWidth="1169" pageHeight="827" math="0" shadow="0">
      <root>
        <mxCell id="0" />
        <mxCell id="1" parent="0" />
        <mxCell id="zHZt4pZZvBoSIs4MCXB3-128" style="edgeStyle=orthogonalEdgeStyle;rounded=0;orthogonalLoop=1;jettySize=auto;html=1;strokeWidth=4;fontSize=12;endArrow=none;endFill=0;" parent="1" source="zHZt4pZZvBoSIs4MCXB3-12" target="zHZt4pZZvBoSIs4MCXB3-127" edge="1">
          <mxGeometry relative="1" as="geometry" />
        </mxCell>
        <mxCell id="zHZt4pZZvBoSIs4MCXB3-34" style="edgeStyle=orthogonalEdgeStyle;rounded=0;orthogonalLoop=1;jettySize=auto;html=1;strokeWidth=4;exitX=0.721;exitY=0.833;exitDx=0;exitDy=0;exitPerimeter=0;endArrow=none;endFill=0;" parent="1" source="zHZt4pZZvBoSIs4MCXB3-17" target="zHZt4pZZvBoSIs4MCXB3-32" edge="1">
          <mxGeometry relative="1" as="geometry" />
        </mxCell>
        <mxCell id="zHZt4pZZvBoSIs4MCXB3-44" style="edgeStyle=orthogonalEdgeStyle;rounded=0;orthogonalLoop=1;jettySize=auto;html=1;strokeWidth=2;strokeColor=#000000;endArrow=none;endFill=0;" parent="1" source="zHZt4pZZvBoSIs4MCXB3-20" target="zHZt4pZZvBoSIs4MCXB3-24" edge="1">
          <mxGeometry relative="1" as="geometry" />
        </mxCell>
        <mxCell id="zHZt4pZZvBoSIs4MCXB3-144" style="edgeStyle=orthogonalEdgeStyle;rounded=0;orthogonalLoop=1;jettySize=auto;html=1;entryX=0;entryY=0.5;entryDx=0;entryDy=0;shadow=0;strokeWidth=2;fontSize=13;fontColor=#FFFFFF;exitX=-0.043;exitY=0.476;exitDx=0;exitDy=0;exitPerimeter=0;strokeColor=#000000;endArrow=none;endFill=0;" parent="1" source="zHZt4pZZvBoSIs4MCXB3-21" target="zHZt4pZZvBoSIs4MCXB3-7" edge="1">
          <mxGeometry relative="1" as="geometry">
            <Array as="points">
              <mxPoint x="819.0100000000001" y="1400" />
              <mxPoint x="760.0100000000001" y="1400" />
            </Array>
          </mxGeometry>
        </mxCell>
        <mxCell id="zHZt4pZZvBoSIs4MCXB3-116" style="edgeStyle=orthogonalEdgeStyle;rounded=0;orthogonalLoop=1;jettySize=auto;html=1;entryX=0.971;entryY=0.508;entryDx=0;entryDy=0;entryPerimeter=0;strokeWidth=2;strokeColor=#000000;endArrow=none;endFill=0;" parent="1" source="zHZt4pZZvBoSIs4MCXB3-24" target="zHZt4pZZvBoSIs4MCXB3-21" edge="1">
          <mxGeometry relative="1" as="geometry" />
        </mxCell>
        <mxCell id="-7D4OBWuc_-icSirQ-0--5" value="" style="edgeStyle=orthogonalEdgeStyle;rounded=0;orthogonalLoop=1;jettySize=auto;html=1;dashed=1;dashPattern=1 1;endArrow=none;endFill=0;" parent="1" source="zHZt4pZZvBoSIs4MCXB3-24" target="zHZt4pZZvBoSIs4MCXB3-114" edge="1">
          <mxGeometry relative="1" as="geometry" />
        </mxCell>
        <mxCell id="zHZt4pZZvBoSIs4MCXB3-24" value="" style="shape=waypoint;sketch=0;size=6;pointerEvents=1;points=[];fillColor=none;resizable=0;rotatable=0;perimeter=centerPerimeter;snapToPoint=1;" parent="1" vertex="1">
          <mxGeometry x="799.5000000000001" y="1273.53" width="40" height="40" as="geometry" />
        </mxCell>
        <mxCell id="zHZt4pZZvBoSIs4MCXB3-47" style="edgeStyle=orthogonalEdgeStyle;rounded=0;orthogonalLoop=1;jettySize=auto;html=1;strokeWidth=2;strokeColor=#000000;endArrow=none;endFill=0;dashed=1;dashPattern=1 1;" parent="1" source="zHZt4pZZvBoSIs4MCXB3-28" target="zHZt4pZZvBoSIs4MCXB3-24" edge="1">
          <mxGeometry relative="1" as="geometry">
            <Array as="points">
              <mxPoint x="881.0100000000001" y="1294" />
              <mxPoint x="820.0100000000001" y="1294" />
            </Array>
          </mxGeometry>
        </mxCell>
        <mxCell id="zHZt4pZZvBoSIs4MCXB3-46" style="edgeStyle=orthogonalEdgeStyle;rounded=0;orthogonalLoop=1;jettySize=auto;html=1;strokeWidth=2;strokeColor=#000000;endArrow=none;endFill=0;dashed=1;dashPattern=1 1;" parent="1" source="zHZt4pZZvBoSIs4MCXB3-30" target="zHZt4pZZvBoSIs4MCXB3-28" edge="1">
          <mxGeometry relative="1" as="geometry" />
        </mxCell>
        <mxCell id="zHZt4pZZvBoSIs4MCXB3-30" value="" style="verticalLabelPosition=bottom;align=center;dashed=0;html=1;verticalAlign=top;shape=mxgraph.pid.piping.double_flange;pointerEvents=1;rotation=90;strokeColor=#A09AD9;strokeWidth=3;fillColor=#A09AD9;" parent="1" vertex="1">
          <mxGeometry x="875.05" y="1390" width="11.63" height="30" as="geometry" />
        </mxCell>
        <mxCell id="zHZt4pZZvBoSIs4MCXB3-35" style="edgeStyle=orthogonalEdgeStyle;rounded=0;orthogonalLoop=1;jettySize=auto;html=1;entryX=0.982;entryY=0.496;entryDx=0;entryDy=0;entryPerimeter=0;strokeWidth=4;endArrow=none;endFill=0;" parent="1" source="zHZt4pZZvBoSIs4MCXB3-32" target="zHZt4pZZvBoSIs4MCXB3-12" edge="1">
          <mxGeometry relative="1" as="geometry" />
        </mxCell>
        <mxCell id="zHZt4pZZvBoSIs4MCXB3-32" value="" style="shape=waypoint;sketch=0;size=6;pointerEvents=1;points=[];fillColor=none;resizable=0;rotatable=0;perimeter=centerPerimeter;snapToPoint=1;" parent="1" vertex="1">
          <mxGeometry x="689.5100000000001" y="1313.53" width="40" height="40" as="geometry" />
        </mxCell>
        <mxCell id="zHZt4pZZvBoSIs4MCXB3-33" style="edgeStyle=orthogonalEdgeStyle;rounded=0;orthogonalLoop=1;jettySize=auto;html=1;" parent="1" source="zHZt4pZZvBoSIs4MCXB3-32" target="zHZt4pZZvBoSIs4MCXB3-32" edge="1">
          <mxGeometry relative="1" as="geometry" />
        </mxCell>
        <mxCell id="zHZt4pZZvBoSIs4MCXB3-37" style="edgeStyle=orthogonalEdgeStyle;rounded=0;orthogonalLoop=1;jettySize=auto;html=1;strokeWidth=2;strokeColor=#000000;dashed=1;endArrow=none;endFill=0;dashPattern=1 1;" parent="1" source="zHZt4pZZvBoSIs4MCXB3-36" target="zHZt4pZZvBoSIs4MCXB3-32" edge="1">
          <mxGeometry relative="1" as="geometry" />
        </mxCell>
        <mxCell id="zHZt4pZZvBoSIs4MCXB3-36" value="" style="verticalLabelPosition=bottom;align=center;html=1;verticalAlign=top;pointerEvents=1;dashed=0;shape=mxgraph.pid2valves.valve;valveType=check;fillColor=#4EA69A;strokeColor=#4EA69A;strokeWidth=3;" parent="1" vertex="1">
          <mxGeometry x="635.0100000000001" y="1323.53" width="30" height="20" as="geometry" />
        </mxCell>
        <mxCell id="zHZt4pZZvBoSIs4MCXB3-39" style="edgeStyle=orthogonalEdgeStyle;rounded=0;orthogonalLoop=1;jettySize=auto;html=1;entryX=0.006;entryY=0.503;entryDx=0;entryDy=0;entryPerimeter=0;strokeWidth=2;strokeColor=#000000;dashed=1;endArrow=none;endFill=0;dashPattern=1 1;" parent="1" source="zHZt4pZZvBoSIs4MCXB3-38" target="zHZt4pZZvBoSIs4MCXB3-36" edge="1">
          <mxGeometry relative="1" as="geometry" />
        </mxCell>
        <mxCell id="zHZt4pZZvBoSIs4MCXB3-38" value="" style="verticalLabelPosition=bottom;align=center;dashed=0;html=1;verticalAlign=top;shape=mxgraph.pid.piping.double_flange;pointerEvents=1;rotation=-180;fillColor=#4EA69A;strokeColor=#4EA69A;strokeWidth=3;" parent="1" vertex="1">
          <mxGeometry x="586.78" y="1316.76" width="9.1" height="33.53" as="geometry" />
        </mxCell>
        <mxCell id="zHZt4pZZvBoSIs4MCXB3-52" style="edgeStyle=orthogonalEdgeStyle;rounded=0;orthogonalLoop=1;jettySize=auto;html=1;dashed=1;strokeWidth=2;entryX=0.506;entryY=0.438;entryDx=0;entryDy=0;entryPerimeter=0;shadow=0;endArrow=none;endFill=0;dashPattern=1 1;" parent="1" source="zHZt4pZZvBoSIs4MCXB3-50" target="zHZt4pZZvBoSIs4MCXB3-53" edge="1">
          <mxGeometry relative="1" as="geometry">
            <mxPoint x="615.8750000000001" y="1263.53" as="targetPoint" />
          </mxGeometry>
        </mxCell>
        <mxCell id="zHZt4pZZvBoSIs4MCXB3-56" style="edgeStyle=orthogonalEdgeStyle;rounded=0;orthogonalLoop=1;jettySize=auto;html=1;entryX=0.365;entryY=1.016;entryDx=0;entryDy=0;entryPerimeter=0;dashed=1;strokeWidth=2;shadow=0;dashPattern=1 1;" parent="1" source="zHZt4pZZvBoSIs4MCXB3-53" target="zHZt4pZZvBoSIs4MCXB3-48" edge="1">
          <mxGeometry relative="1" as="geometry" />
        </mxCell>
        <mxCell id="zHZt4pZZvBoSIs4MCXB3-53" value="" style="shape=waypoint;sketch=0;size=6;pointerEvents=1;points=[];fillColor=none;resizable=0;rotatable=0;perimeter=centerPerimeter;snapToPoint=1;" parent="1" vertex="1">
          <mxGeometry x="595.8800000000001" y="1253.53" width="40" height="40" as="geometry" />
        </mxCell>
        <mxCell id="zHZt4pZZvBoSIs4MCXB3-68" style="edgeStyle=orthogonalEdgeStyle;rounded=0;orthogonalLoop=1;jettySize=auto;html=1;entryX=0.019;entryY=0.427;entryDx=0;entryDy=0;entryPerimeter=0;dashed=1;strokeWidth=2;shadow=0;endArrow=none;endFill=0;dashPattern=1 1;" parent="1" source="zHZt4pZZvBoSIs4MCXB3-59" target="zHZt4pZZvBoSIs4MCXB3-63" edge="1">
          <mxGeometry relative="1" as="geometry" />
        </mxCell>
        <mxCell id="zHZt4pZZvBoSIs4MCXB3-59" value="" style="shape=waypoint;sketch=0;size=6;pointerEvents=1;points=[];fillColor=none;resizable=0;rotatable=0;perimeter=centerPerimeter;snapToPoint=1;" parent="1" vertex="1">
          <mxGeometry x="462.01" y="1253.53" width="40" height="40" as="geometry" />
        </mxCell>
        <mxCell id="zHZt4pZZvBoSIs4MCXB3-61" style="edgeStyle=orthogonalEdgeStyle;rounded=0;orthogonalLoop=1;jettySize=auto;html=1;dashed=1;strokeWidth=2;shadow=0;endArrow=none;endFill=0;exitX=0.036;exitY=0.733;exitDx=0;exitDy=0;exitPerimeter=0;dashPattern=1 1;" parent="1" source="zHZt4pZZvBoSIs4MCXB3-60" edge="1">
          <mxGeometry relative="1" as="geometry">
            <mxPoint x="482" y="1274" as="targetPoint" />
          </mxGeometry>
        </mxCell>
        <mxCell id="zHZt4pZZvBoSIs4MCXB3-60" value="" style="verticalLabelPosition=bottom;align=center;html=1;verticalAlign=top;pointerEvents=1;dashed=0;shape=mxgraph.pid2valves.valve;valveType=gate;actuator=spring;rotation=-90;fillColor=#7EA6E0;" parent="1" vertex="1">
          <mxGeometry x="460" y="1196.46" width="30" height="30" as="geometry" />
        </mxCell>
        <mxCell id="zHZt4pZZvBoSIs4MCXB3-65" style="edgeStyle=orthogonalEdgeStyle;rounded=0;orthogonalLoop=1;jettySize=auto;html=1;dashed=1;strokeWidth=2;shadow=0;endArrow=none;endFill=0;dashPattern=1 1;" parent="1" source="zHZt4pZZvBoSIs4MCXB3-63" target="zHZt4pZZvBoSIs4MCXB3-53" edge="1">
          <mxGeometry relative="1" as="geometry" />
        </mxCell>
        <mxCell id="zHZt4pZZvBoSIs4MCXB3-120" style="edgeStyle=orthogonalEdgeStyle;rounded=0;orthogonalLoop=1;jettySize=auto;html=1;entryX=-0.058;entryY=0.426;entryDx=0;entryDy=0;entryPerimeter=0;dashed=1;strokeWidth=2;shadow=0;endArrow=none;endFill=0;dashPattern=1 1;" parent="1" source="zHZt4pZZvBoSIs4MCXB3-71" target="zHZt4pZZvBoSIs4MCXB3-59" edge="1">
          <mxGeometry relative="1" as="geometry">
            <Array as="points">
              <mxPoint x="440" y="1110" />
              <mxPoint x="440" y="1273" />
            </Array>
          </mxGeometry>
        </mxCell>
        <mxCell id="zHZt4pZZvBoSIs4MCXB3-71" value="" style="verticalLabelPosition=bottom;align=center;html=1;verticalAlign=top;pointerEvents=1;dashed=0;shape=mxgraph.pid2valves.valve;valveType=check;rotation=-180;fillColor=#7EA6E0;strokeColor=#7EA6E0;strokeWidth=3;" parent="1" vertex="1">
          <mxGeometry x="567.7700000000001" y="1105" width="30" height="20" as="geometry" />
        </mxCell>
        <mxCell id="zHZt4pZZvBoSIs4MCXB3-74" style="edgeStyle=orthogonalEdgeStyle;rounded=0;orthogonalLoop=1;jettySize=auto;html=1;entryX=0;entryY=0.5;entryDx=0;entryDy=0;entryPerimeter=0;dashed=1;strokeWidth=2;shadow=0;endArrow=none;endFill=0;dashPattern=1 1;" parent="1" source="zHZt4pZZvBoSIs4MCXB3-84" target="zHZt4pZZvBoSIs4MCXB3-71" edge="1">
          <mxGeometry relative="1" as="geometry">
            <mxPoint x="631.06" y="1085" as="sourcePoint" />
          </mxGeometry>
        </mxCell>
        <mxCell id="zHZt4pZZvBoSIs4MCXB3-126" style="edgeStyle=orthogonalEdgeStyle;rounded=0;orthogonalLoop=1;jettySize=auto;html=1;strokeWidth=2;fontSize=12;dashed=1;shadow=0;endArrow=none;endFill=0;dashPattern=1 1;entryX=0.492;entryY=0.551;entryDx=0;entryDy=0;entryPerimeter=0;" parent="1" source="zHZt4pZZvBoSIs4MCXB3-77" target="zHZt4pZZvBoSIs4MCXB3-109" edge="1">
          <mxGeometry relative="1" as="geometry">
            <Array as="points">
              <mxPoint x="1080" y="1115" />
              <mxPoint x="1080" y="1273" />
            </Array>
          </mxGeometry>
        </mxCell>
        <mxCell id="zHZt4pZZvBoSIs4MCXB3-77" value="" style="verticalLabelPosition=bottom;align=center;html=1;verticalAlign=top;pointerEvents=1;dashed=0;shape=mxgraph.pid2valves.valve;valveType=check;rotation=-360;fillColor=#7EA6E0;strokeColor=#7EA6E0;strokeWidth=3;" parent="1" vertex="1">
          <mxGeometry x="907.7700000000001" y="1105" width="30" height="20" as="geometry" />
        </mxCell>
        <mxCell id="zHZt4pZZvBoSIs4MCXB3-82" style="edgeStyle=orthogonalEdgeStyle;rounded=0;orthogonalLoop=1;jettySize=auto;html=1;entryX=0;entryY=0.5;entryDx=0;entryDy=0;entryPerimeter=0;dashed=1;strokeWidth=2;shadow=0;endArrow=none;endFill=0;dashPattern=1 1;exitX=0.469;exitY=0.547;exitDx=0;exitDy=0;exitPerimeter=0;" parent="1" source="zHZt4pZZvBoSIs4MCXB3-84" target="zHZt4pZZvBoSIs4MCXB3-77" edge="1">
          <mxGeometry relative="1" as="geometry">
            <mxPoint x="874.4799999999998" y="1085" as="sourcePoint" />
          </mxGeometry>
        </mxCell>
        <mxCell id="zHZt4pZZvBoSIs4MCXB3-83" value="" style="verticalLabelPosition=bottom;align=center;html=1;verticalAlign=top;pointerEvents=1;dashed=0;shape=mxgraph.pid2valves.valve;valveType=gate;actuator=diaph;rotation=-90;fillColor=#7EA6E0;" parent="1" vertex="1">
          <mxGeometry x="742.2700000000001" y="1000" width="30" height="30" as="geometry" />
        </mxCell>
        <mxCell id="XdWb99oWSXPAjIpHHQYv-5" style="edgeStyle=orthogonalEdgeStyle;rounded=0;orthogonalLoop=1;jettySize=auto;html=1;entryX=0.033;entryY=0.495;entryDx=0;entryDy=0;entryPerimeter=0;endArrow=none;endFill=0;dashed=1;strokeWidth=2;dashPattern=1 1;" parent="1" source="zHZt4pZZvBoSIs4MCXB3-84" target="XdWb99oWSXPAjIpHHQYv-3" edge="1">
          <mxGeometry relative="1" as="geometry" />
        </mxCell>
        <mxCell id="zHZt4pZZvBoSIs4MCXB3-84" value="" style="shape=waypoint;sketch=0;size=6;pointerEvents=1;points=[];fillColor=none;resizable=0;rotatable=0;perimeter=centerPerimeter;snapToPoint=1;" parent="1" vertex="1">
          <mxGeometry x="744.2700000000001" y="1095" width="40" height="40" as="geometry" />
        </mxCell>
        <mxCell id="zHZt4pZZvBoSIs4MCXB3-97" style="edgeStyle=orthogonalEdgeStyle;rounded=0;orthogonalLoop=1;jettySize=auto;html=1;dashed=1;strokeWidth=2;shadow=0;endArrow=none;endFill=0;dashPattern=1 1;" parent="1" source="zHZt4pZZvBoSIs4MCXB3-89" edge="1">
          <mxGeometry relative="1" as="geometry">
            <mxPoint x="809.4900000000002" y="980" as="targetPoint" />
          </mxGeometry>
        </mxCell>
        <mxCell id="zHZt4pZZvBoSIs4MCXB3-261" style="edgeStyle=orthogonalEdgeStyle;rounded=0;orthogonalLoop=1;jettySize=auto;html=1;shadow=0;strokeColor=#000000;strokeWidth=2;fontSize=25;fontColor=#000000;startArrow=none;startFill=0;endArrow=none;endFill=0;dashed=1;dashPattern=1 1;entryX=0.97;entryY=0.67;entryDx=0;entryDy=0;entryPerimeter=0;" parent="1" source="zHZt4pZZvBoSIs4MCXB3-89" target="zHZt4pZZvBoSIs4MCXB3-83" edge="1">
          <mxGeometry relative="1" as="geometry">
            <mxPoint x="762" y="1010" as="targetPoint" />
          </mxGeometry>
        </mxCell>
        <mxCell id="zHZt4pZZvBoSIs4MCXB3-98" style="edgeStyle=orthogonalEdgeStyle;rounded=0;orthogonalLoop=1;jettySize=auto;html=1;entryX=0.9;entryY=0.5;entryDx=0;entryDy=0;entryPerimeter=0;dashed=1;strokeWidth=2;shadow=0;endArrow=none;endFill=0;dashPattern=1 1;" parent="1" target="zHZt4pZZvBoSIs4MCXB3-94" edge="1">
          <mxGeometry relative="1" as="geometry">
            <mxPoint x="841.2" y="980" as="sourcePoint" />
            <Array as="points">
              <mxPoint x="860" y="980" />
              <mxPoint x="860" y="980" />
            </Array>
          </mxGeometry>
        </mxCell>
        <mxCell id="zHZt4pZZvBoSIs4MCXB3-94" value="" style="verticalLabelPosition=bottom;align=center;dashed=0;html=1;verticalAlign=top;shape=mxgraph.pid.piping.double_flange;pointerEvents=1;rotation=-180;fillColor=#7EA6E0;strokeColor=#7EA6E0;strokeWidth=3;" parent="1" vertex="1">
          <mxGeometry x="887.51" y="965" width="15" height="30" as="geometry" />
        </mxCell>
        <mxCell id="zHZt4pZZvBoSIs4MCXB3-112" style="edgeStyle=orthogonalEdgeStyle;rounded=0;orthogonalLoop=1;jettySize=auto;html=1;dashed=1;strokeWidth=2;shadow=0;endArrow=none;endFill=0;dashPattern=1 1;" parent="1" source="zHZt4pZZvBoSIs4MCXB3-100" target="zHZt4pZZvBoSIs4MCXB3-111" edge="1">
          <mxGeometry relative="1" as="geometry" />
        </mxCell>
        <mxCell id="zHZt4pZZvBoSIs4MCXB3-101" value="" style="shape=waypoint;sketch=0;size=6;pointerEvents=1;points=[];fillColor=none;resizable=0;rotatable=0;perimeter=centerPerimeter;snapToPoint=1;" parent="1" vertex="1">
          <mxGeometry x="999.7200000000001" y="1253.53" width="40" height="40" as="geometry" />
        </mxCell>
        <mxCell id="zHZt4pZZvBoSIs4MCXB3-163" style="edgeStyle=orthogonalEdgeStyle;rounded=0;orthogonalLoop=1;jettySize=auto;html=1;shadow=0;dashed=1;strokeColor=#000000;strokeWidth=2;fontSize=10;fontColor=#FFFFFF;endArrow=none;endFill=0;exitX=-0.04;exitY=0.709;exitDx=0;exitDy=0;exitPerimeter=0;dashPattern=1 1;" parent="1" source="zHZt4pZZvBoSIs4MCXB3-107" target="zHZt4pZZvBoSIs4MCXB3-101" edge="1">
          <mxGeometry relative="1" as="geometry">
            <Array as="points">
              <mxPoint x="1021" y="1240" />
              <mxPoint x="1020" y="1240" />
              <mxPoint x="1020" y="1274" />
            </Array>
          </mxGeometry>
        </mxCell>
        <mxCell id="zHZt4pZZvBoSIs4MCXB3-107" value="" style="verticalLabelPosition=bottom;align=center;html=1;verticalAlign=top;pointerEvents=1;dashed=0;shape=mxgraph.pid2valves.valve;valveType=gate;actuator=spring;rotation=-90;fillColor=#7EA6E0;" parent="1" vertex="1">
          <mxGeometry x="1001.7200000000001" y="1192.67" width="25" height="30" as="geometry" />
        </mxCell>
        <mxCell id="zHZt4pZZvBoSIs4MCXB3-117" style="edgeStyle=orthogonalEdgeStyle;rounded=0;orthogonalLoop=1;jettySize=auto;html=1;dashed=1;strokeWidth=2;shadow=0;endArrow=none;endFill=0;dashPattern=1 1;" parent="1" source="zHZt4pZZvBoSIs4MCXB3-109" target="zHZt4pZZvBoSIs4MCXB3-111" edge="1">
          <mxGeometry relative="1" as="geometry" />
        </mxCell>
        <mxCell id="zHZt4pZZvBoSIs4MCXB3-118" style="edgeStyle=orthogonalEdgeStyle;rounded=0;orthogonalLoop=1;jettySize=auto;html=1;entryX=0.782;entryY=1.059;entryDx=0;entryDy=0;entryPerimeter=0;dashed=1;strokeWidth=2;shadow=0;dashPattern=1 1;" parent="1" source="zHZt4pZZvBoSIs4MCXB3-111" target="zHZt4pZZvBoSIs4MCXB3-114" edge="1">
          <mxGeometry relative="1" as="geometry" />
        </mxCell>
        <mxCell id="zHZt4pZZvBoSIs4MCXB3-111" value="" style="shape=waypoint;sketch=0;size=6;pointerEvents=1;points=[];fillColor=none;resizable=0;rotatable=0;perimeter=centerPerimeter;snapToPoint=1;" parent="1" vertex="1">
          <mxGeometry x="883.3700000000001" y="1253.53" width="40" height="40" as="geometry" />
        </mxCell>
        <mxCell id="zHZt4pZZvBoSIs4MCXB3-143" style="edgeStyle=orthogonalEdgeStyle;rounded=0;orthogonalLoop=1;jettySize=auto;html=1;entryX=0;entryY=0.75;entryDx=0;entryDy=0;shadow=0;strokeWidth=4;fontSize=13;fontColor=#FFFFFF;endArrow=none;endFill=0;" parent="1" source="zHZt4pZZvBoSIs4MCXB3-127" target="zHZt4pZZvBoSIs4MCXB3-7" edge="1">
          <mxGeometry relative="1" as="geometry">
            <Array as="points">
              <mxPoint x="709.0100000000001" y="1460" />
              <mxPoint x="750.0100000000001" y="1460" />
            </Array>
          </mxGeometry>
        </mxCell>
        <mxCell id="zHZt4pZZvBoSIs4MCXB3-41" value="" style="verticalLabelPosition=bottom;align=center;dashed=0;html=1;verticalAlign=top;shape=mxgraph.pid.piping.concentric_reducer;rotation=-90;fillColor=#B3B3B3;strokeWidth=3;" parent="1" vertex="1">
          <mxGeometry x="730.0000000000001" y="1564.7199999999998" width="62.08" height="33.64" as="geometry" />
        </mxCell>
        <mxCell id="zHZt4pZZvBoSIs4MCXB3-7" value="" style="rounded=0;whiteSpace=wrap;html=1;rotation=90;fillColor=#B3B3B3;strokeWidth=3;" parent="1" vertex="1">
          <mxGeometry x="727.2500000000001" y="1516.85" width="64.82" height="37.88" as="geometry" />
        </mxCell>
        <mxCell id="zHZt4pZZvBoSIs4MCXB3-171" style="edgeStyle=orthogonalEdgeStyle;rounded=0;orthogonalLoop=1;jettySize=auto;html=1;entryX=0.445;entryY=0.504;entryDx=0;entryDy=0;entryPerimeter=0;shadow=0;strokeColor=#B3B3B3;strokeWidth=3;fontSize=11;fontColor=#FFFFFF;endArrow=none;endFill=0;" parent="1" source="zHZt4pZZvBoSIs4MCXB3-169" target="zHZt4pZZvBoSIs4MCXB3-127" edge="1">
          <mxGeometry relative="1" as="geometry" />
        </mxCell>
        <mxCell id="zHZt4pZZvBoSIs4MCXB3-169" value="P2&lt;br&gt; " style="html=1;outlineConnect=0;align=center;dashed=0;aspect=fixed;shape=mxgraph.pid2inst.discInst;mounting=field;strokeColor=default;strokeWidth=2;fontSize=11;fontColor=#FFFFFF;fillColor=#B3B3B3;gradientColor=none;" parent="1" vertex="1">
          <mxGeometry x="647.7700000000001" y="1425" width="30" height="30" as="geometry" />
        </mxCell>
        <mxCell id="zHZt4pZZvBoSIs4MCXB3-173" style="edgeStyle=orthogonalEdgeStyle;rounded=0;orthogonalLoop=1;jettySize=auto;html=1;entryX=0;entryY=0.25;entryDx=0;entryDy=0;shadow=0;strokeColor=#B3B3B3;strokeWidth=3;fontSize=11;fontColor=#FFFFFF;endArrow=none;endFill=0;" parent="1" source="zHZt4pZZvBoSIs4MCXB3-172" target="zHZt4pZZvBoSIs4MCXB3-7" edge="1">
          <mxGeometry relative="1" as="geometry" />
        </mxCell>
        <mxCell id="zHZt4pZZvBoSIs4MCXB3-172" value="P1&lt;br&gt; " style="html=1;outlineConnect=0;align=center;dashed=0;aspect=fixed;shape=mxgraph.pid2inst.discInst;mounting=field;strokeColor=default;strokeWidth=2;fontSize=11;fontColor=#FFFFFF;fillColor=#B3B3B3;gradientColor=none;" parent="1" vertex="1">
          <mxGeometry x="804.5000000000001" y="1425" width="30" height="30" as="geometry" />
        </mxCell>
        <mxCell id="zHZt4pZZvBoSIs4MCXB3-175" style="edgeStyle=orthogonalEdgeStyle;rounded=0;orthogonalLoop=1;jettySize=auto;html=1;entryX=0.495;entryY=0.426;entryDx=0;entryDy=0;entryPerimeter=0;shadow=0;strokeColor=#B3B3B3;strokeWidth=3;fontSize=11;fontColor=#FFFFFF;endArrow=none;endFill=0;" parent="1" source="zHZt4pZZvBoSIs4MCXB3-174" target="zHZt4pZZvBoSIs4MCXB3-63" edge="1">
          <mxGeometry relative="1" as="geometry" />
        </mxCell>
        <mxCell id="zHZt4pZZvBoSIs4MCXB3-174" value="P4&lt;br&gt; " style="html=1;outlineConnect=0;align=center;dashed=0;aspect=fixed;shape=mxgraph.pid2inst.discInst;mounting=field;strokeColor=default;strokeWidth=2;fontSize=11;fontColor=#FFFFFF;fillColor=#B3B3B3;gradientColor=none;" parent="1" vertex="1">
          <mxGeometry x="537.7700000000001" y="1198.53" width="30" height="30" as="geometry" />
        </mxCell>
        <mxCell id="zHZt4pZZvBoSIs4MCXB3-177" style="edgeStyle=orthogonalEdgeStyle;rounded=0;orthogonalLoop=1;jettySize=auto;html=1;entryX=0.498;entryY=0.449;entryDx=0;entryDy=0;entryPerimeter=0;shadow=0;strokeColor=#B3B3B3;strokeWidth=3;fontSize=11;fontColor=#FFFFFF;endArrow=none;endFill=0;" parent="1" source="zHZt4pZZvBoSIs4MCXB3-176" target="zHZt4pZZvBoSIs4MCXB3-109" edge="1">
          <mxGeometry relative="1" as="geometry" />
        </mxCell>
        <mxCell id="zHZt4pZZvBoSIs4MCXB3-176" value="P5&lt;br&gt; " style="html=1;outlineConnect=0;align=center;dashed=0;aspect=fixed;shape=mxgraph.pid2inst.discInst;mounting=field;strokeColor=default;strokeWidth=2;fontSize=11;fontColor=#FFFFFF;fillColor=#B3B3B3;gradientColor=none;" parent="1" vertex="1">
          <mxGeometry x="949.2200000000001" y="1193.53" width="30" height="30" as="geometry" />
        </mxCell>
        <mxCell id="zHZt4pZZvBoSIs4MCXB3-178" value="" style="group" parent="1" vertex="1" connectable="0">
          <mxGeometry x="600.0200000000001" y="1197.675" width="30" height="31.710000000000036" as="geometry" />
        </mxCell>
        <mxCell id="zHZt4pZZvBoSIs4MCXB3-50" value="" style="verticalLabelPosition=bottom;align=center;html=1;verticalAlign=top;pointerEvents=1;dashed=0;shape=mxgraph.pid2valves.valve;valveType=ball;rotation=-90;fillColor=#7EA6E0;" parent="zHZt4pZZvBoSIs4MCXB3-178" vertex="1">
          <mxGeometry y="5.855000000000018" width="31.71" height="20" as="geometry" />
        </mxCell>
        <mxCell id="zHZt4pZZvBoSIs4MCXB3-155" value="&lt;font style=&quot;font-size: 8px;&quot;&gt;M&lt;/font&gt;" style="text;html=1;align=center;verticalAlign=middle;resizable=0;points=[];autosize=1;strokeColor=none;fillColor=none;fontSize=10;fontColor=#FFFFFF;" parent="zHZt4pZZvBoSIs4MCXB3-178" vertex="1">
          <mxGeometry y="0.8550000000000182" width="30" height="30" as="geometry" />
        </mxCell>
        <mxCell id="zHZt4pZZvBoSIs4MCXB3-182" value="" style="group" parent="1" vertex="1" connectable="0">
          <mxGeometry x="527.7700000000001" y="945" width="120" height="70" as="geometry" />
        </mxCell>
        <mxCell id="zHZt4pZZvBoSIs4MCXB3-91" value="" style="verticalLabelPosition=bottom;outlineConnect=0;align=center;dashed=0;html=1;verticalAlign=top;shape=mxgraph.pid2misc.column;columnType=common;rotation=90;fillColor=#7EA6E0;strokeWidth=3;" parent="zHZt4pZZvBoSIs4MCXB3-182" vertex="1">
          <mxGeometry x="25" y="-25" width="70" height="120" as="geometry" />
        </mxCell>
        <mxCell id="zHZt4pZZvBoSIs4MCXB3-125" value="&lt;font style=&quot;font-size: 12px;&quot;&gt;N2&lt;/font&gt;" style="text;html=1;align=center;verticalAlign=middle;resizable=0;points=[];autosize=1;strokeColor=none;fillColor=none;fontSize=6;fontColor=#FFFFFF;fontStyle=1" parent="zHZt4pZZvBoSIs4MCXB3-182" vertex="1">
          <mxGeometry x="40.860000000000014" y="20" width="40" height="30" as="geometry" />
        </mxCell>
        <mxCell id="zHZt4pZZvBoSIs4MCXB3-183" value="" style="group" parent="1" vertex="1" connectable="0">
          <mxGeometry x="659.5100000000001" y="1147.67" width="70" height="120" as="geometry" />
        </mxCell>
        <mxCell id="zHZt4pZZvBoSIs4MCXB3-17" value="" style="verticalLabelPosition=bottom;outlineConnect=0;align=center;dashed=0;html=1;verticalAlign=top;shape=mxgraph.pid2misc.column;columnType=common;fillColor=#4EA69A;strokeWidth=3;" parent="zHZt4pZZvBoSIs4MCXB3-183" vertex="1">
          <mxGeometry width="70" height="120" as="geometry" />
        </mxCell>
        <mxCell id="zHZt4pZZvBoSIs4MCXB3-48" value="N2O" style="text;html=1;align=center;verticalAlign=middle;resizable=0;points=[];autosize=1;strokeColor=none;fillColor=none;fontColor=#FFFFFF;fontStyle=1;fontSize=13;" parent="zHZt4pZZvBoSIs4MCXB3-183" vertex="1">
          <mxGeometry x="10" y="45" width="50" height="30" as="geometry" />
        </mxCell>
        <mxCell id="zHZt4pZZvBoSIs4MCXB3-184" value="" style="group" parent="1" vertex="1" connectable="0">
          <mxGeometry x="784.5000000000001" y="1154.74" width="70" height="112.93000000000006" as="geometry" />
        </mxCell>
        <mxCell id="zHZt4pZZvBoSIs4MCXB3-20" value="" style="verticalLabelPosition=bottom;outlineConnect=0;align=center;dashed=0;html=1;verticalAlign=top;shape=mxgraph.pid2misc.column;columnType=common;fillColor=#A09AD9;strokeWidth=3;" parent="zHZt4pZZvBoSIs4MCXB3-184" vertex="1">
          <mxGeometry width="70" height="112.93" as="geometry" />
        </mxCell>
        <mxCell id="zHZt4pZZvBoSIs4MCXB3-114" value="IPA" style="text;html=1;align=center;verticalAlign=middle;resizable=0;points=[];autosize=1;strokeColor=none;fillColor=none;fontColor=#FFFFFF;fontStyle=1" parent="zHZt4pZZvBoSIs4MCXB3-184" vertex="1">
          <mxGeometry x="15" y="41.47000000000003" width="40" height="30" as="geometry" />
        </mxCell>
        <mxCell id="zHZt4pZZvBoSIs4MCXB3-185" value="" style="group" parent="1" vertex="1" connectable="0">
          <mxGeometry x="887.5100000000001" y="1192.675" width="30" height="31.710000000000036" as="geometry" />
        </mxCell>
        <mxCell id="zHZt4pZZvBoSIs4MCXB3-100" value="" style="verticalLabelPosition=bottom;align=center;html=1;verticalAlign=top;pointerEvents=1;dashed=0;shape=mxgraph.pid2valves.valve;valveType=ball;rotation=-90;fillColor=#7EA6E0;" parent="zHZt4pZZvBoSIs4MCXB3-185" vertex="1">
          <mxGeometry y="5.855000000000018" width="31.71" height="20" as="geometry" />
        </mxCell>
        <mxCell id="zHZt4pZZvBoSIs4MCXB3-154" value="&lt;font style=&quot;font-size: 8px;&quot;&gt;M&lt;/font&gt;" style="text;html=1;align=center;verticalAlign=middle;resizable=0;points=[];autosize=1;strokeColor=none;fillColor=none;fontSize=10;fontColor=#FFFFFF;" parent="zHZt4pZZvBoSIs4MCXB3-185" vertex="1">
          <mxGeometry y="0.8550000000000182" width="30" height="30" as="geometry" />
        </mxCell>
        <mxCell id="zHZt4pZZvBoSIs4MCXB3-186" value="" style="group" parent="1" vertex="1" connectable="0">
          <mxGeometry x="804.5000000000002" y="1327.675" width="30" height="31.710000000000036" as="geometry" />
        </mxCell>
        <mxCell id="zHZt4pZZvBoSIs4MCXB3-21" value="" style="verticalLabelPosition=bottom;align=center;html=1;verticalAlign=top;pointerEvents=1;dashed=0;shape=mxgraph.pid2valves.valve;valveType=ball;rotation=-90;fillColor=#A09AD9;" parent="zHZt4pZZvBoSIs4MCXB3-186" vertex="1">
          <mxGeometry x="-0.9900000000001228" y="5.855000000000018" width="31.71" height="20" as="geometry" />
        </mxCell>
        <mxCell id="zHZt4pZZvBoSIs4MCXB3-158" value="&lt;font style=&quot;font-size: 8px;&quot;&gt;M&lt;/font&gt;" style="text;html=1;align=center;verticalAlign=middle;resizable=0;points=[];autosize=1;strokeColor=none;fillColor=none;fontSize=10;fontColor=#FFFFFF;" parent="zHZt4pZZvBoSIs4MCXB3-186" vertex="1">
          <mxGeometry y="0.8550000000000182" width="30" height="30" as="geometry" />
        </mxCell>
        <mxCell id="zHZt4pZZvBoSIs4MCXB3-187" value="" style="group" parent="1" vertex="1" connectable="0">
          <mxGeometry x="865.0100000000001" y="1327.675" width="30" height="31.710000000000036" as="geometry" />
        </mxCell>
        <mxCell id="zHZt4pZZvBoSIs4MCXB3-28" value="" style="verticalLabelPosition=bottom;align=center;html=1;verticalAlign=top;pointerEvents=1;dashed=0;shape=mxgraph.pid2valves.valve;valveType=ball;rotation=90;fillColor=#A09AD9;" parent="zHZt4pZZvBoSIs4MCXB3-187" vertex="1">
          <mxGeometry y="5.855000000000018" width="31.71" height="20" as="geometry" />
        </mxCell>
        <mxCell id="zHZt4pZZvBoSIs4MCXB3-151" value="&lt;font style=&quot;font-size: 12px;&quot;&gt;x&lt;/font&gt;" style="text;html=1;align=center;verticalAlign=middle;resizable=0;points=[];autosize=1;strokeColor=none;fillColor=none;fontSize=13;fontColor=#FFFFFF;" parent="zHZt4pZZvBoSIs4MCXB3-187" vertex="1">
          <mxGeometry y="0.8550000000000182" width="30" height="30" as="geometry" />
        </mxCell>
        <mxCell id="zHZt4pZZvBoSIs4MCXB3-257" value="" style="whiteSpace=wrap;html=1;strokeColor=default;strokeWidth=4;fontSize=18;fontColor=#000000;fillColor=#BA5551;gradientColor=none;" parent="1" vertex="1">
          <mxGeometry x="80" y="850" width="930" height="60" as="geometry" />
        </mxCell>
        <mxCell id="zHZt4pZZvBoSIs4MCXB3-256" value="&lt;b&gt;&lt;font style=&quot;font-size: 25px;&quot; color=&quot;#ffffff&quot;&gt;Nitrogen Pressurised Liquid Bi-propellant P&amp;amp;ID&lt;/font&gt;&lt;/b&gt;" style="text;html=1;align=center;verticalAlign=middle;resizable=0;points=[];autosize=1;strokeColor=none;fillColor=none;fontSize=18;fontColor=#000000;" parent="1" vertex="1">
          <mxGeometry x="90" y="860" width="590" height="40" as="geometry" />
        </mxCell>
        <mxCell id="zHZt4pZZvBoSIs4MCXB3-258" value="&lt;font color=&quot;#000000&quot;&gt;V3.5&lt;/font&gt;" style="whiteSpace=wrap;html=1;strokeColor=default;strokeWidth=4;fontSize=25;fontColor=#FFFFFF;fillColor=#FFFFFF;gradientColor=none;" parent="1" vertex="1">
          <mxGeometry x="1030" y="850" width="120" height="60" as="geometry" />
        </mxCell>
        <mxCell id="zHZt4pZZvBoSIs4MCXB3-259" value="" style="group" parent="1" vertex="1" connectable="0">
          <mxGeometry x="80" y="943" width="280" height="647" as="geometry" />
        </mxCell>
        <mxCell id="zHZt4pZZvBoSIs4MCXB3-254" value="" style="whiteSpace=wrap;html=1;strokeColor=default;strokeWidth=4;fontSize=18;fontColor=#000000;fillColor=none;gradientColor=none;" parent="zHZt4pZZvBoSIs4MCXB3-259" vertex="1">
          <mxGeometry width="280" height="647" as="geometry" />
        </mxCell>
        <mxCell id="zHZt4pZZvBoSIs4MCXB3-253" value="" style="group" parent="zHZt4pZZvBoSIs4MCXB3-259" vertex="1" connectable="0">
          <mxGeometry x="10.000000000000014" y="21.784511784511785" width="230" height="602.309074074074" as="geometry" />
        </mxCell>
        <mxCell id="zHZt4pZZvBoSIs4MCXB3-196" value="&lt;b&gt;&lt;font color=&quot;#000000&quot;&gt;Created By Cooper Chang Chien&lt;/font&gt;&lt;/b&gt;" style="text;html=1;align=left;verticalAlign=middle;resizable=0;points=[];autosize=1;strokeColor=none;fillColor=none;fontSize=12;fontColor=#EA6B66;" parent="zHZt4pZZvBoSIs4MCXB3-253" vertex="1">
          <mxGeometry y="6.535353535353564" width="210" height="30" as="geometry" />
        </mxCell>
        <mxCell id="zHZt4pZZvBoSIs4MCXB3-214" value="" style="group" parent="zHZt4pZZvBoSIs4MCXB3-253" vertex="1" connectable="0">
          <mxGeometry x="20" y="139.38819865319869" width="189.99999999999994" height="32.676767676767675" as="geometry" />
        </mxCell>
        <mxCell id="zHZt4pZZvBoSIs4MCXB3-204" value="&lt;font style=&quot;font-size: 14px;&quot; color=&quot;#000000&quot;&gt;&lt;b&gt;Manual Ball Valve&lt;/b&gt;&lt;/font&gt;" style="text;html=1;align=center;verticalAlign=middle;resizable=0;points=[];autosize=1;strokeColor=none;fillColor=none;fontSize=12;fontColor=#EA6B66;" parent="zHZt4pZZvBoSIs4MCXB3-214" vertex="1">
          <mxGeometry width="140" height="30" as="geometry" />
        </mxCell>
        <mxCell id="zHZt4pZZvBoSIs4MCXB3-210" value="" style="group" parent="zHZt4pZZvBoSIs4MCXB3-214" vertex="1" connectable="0">
          <mxGeometry x="150" width="39.99999999999994" height="32.676767676767675" as="geometry" />
        </mxCell>
        <mxCell id="zHZt4pZZvBoSIs4MCXB3-211" value="" style="verticalLabelPosition=bottom;align=center;html=1;verticalAlign=top;pointerEvents=1;dashed=0;shape=mxgraph.pid2valves.valve;valveType=ball;rotation=-180;fillColor=#FFFFFF;strokeWidth=2;" parent="zHZt4pZZvBoSIs4MCXB3-210" vertex="1">
          <mxGeometry y="1.8153759820426074" width="39.99999999999996" height="29.046015712682376" as="geometry" />
        </mxCell>
        <mxCell id="zHZt4pZZvBoSIs4MCXB3-212" value="&lt;font color=&quot;#000000&quot; style=&quot;font-size: 8px;&quot;&gt;X&lt;/font&gt;" style="text;html=1;align=center;verticalAlign=middle;resizable=0;points=[];autosize=1;strokeColor=none;fillColor=none;fontSize=10;fontColor=#FFFFFF;" parent="zHZt4pZZvBoSIs4MCXB3-210" vertex="1">
          <mxGeometry x="5" width="30" height="30" as="geometry" />
        </mxCell>
        <mxCell id="zHZt4pZZvBoSIs4MCXB3-221" value="" style="group" parent="zHZt4pZZvBoSIs4MCXB3-253" vertex="1" connectable="0">
          <mxGeometry x="20" y="186.80218855218854" width="190" height="43.56902356902357" as="geometry" />
        </mxCell>
        <mxCell id="zHZt4pZZvBoSIs4MCXB3-216" value="&lt;font size=&quot;1&quot; style=&quot;&quot; color=&quot;#000000&quot;&gt;&lt;b style=&quot;font-size: 11px;&quot;&gt;Safety Pressure &lt;br&gt;Release Valve (SPRV)&lt;/b&gt;&lt;/font&gt;" style="text;html=1;align=center;verticalAlign=middle;resizable=0;points=[];autosize=1;strokeColor=none;fillColor=none;fontSize=12;fontColor=#EA6B66;" parent="zHZt4pZZvBoSIs4MCXB3-221" vertex="1">
          <mxGeometry width="140" height="40" as="geometry" />
        </mxCell>
        <mxCell id="zHZt4pZZvBoSIs4MCXB3-220" value="" style="verticalLabelPosition=bottom;align=center;html=1;verticalAlign=top;pointerEvents=1;dashed=0;shape=mxgraph.pid2valves.valve;valveType=gate;actuator=spring;strokeColor=#000000;strokeWidth=2;fontSize=11;fontColor=#000000;fillColor=#FFFFFF;gradientColor=none;" parent="zHZt4pZZvBoSIs4MCXB3-221" vertex="1">
          <mxGeometry x="150" width="40" height="38.12289562289562" as="geometry" />
        </mxCell>
        <mxCell id="zHZt4pZZvBoSIs4MCXB3-226" value="" style="group" parent="zHZt4pZZvBoSIs4MCXB3-253" vertex="1" connectable="0">
          <mxGeometry x="35" y="252.66765993265994" width="175" height="43.56902356902357" as="geometry" />
        </mxCell>
        <mxCell id="zHZt4pZZvBoSIs4MCXB3-223" value="&lt;font style=&quot;font-size: 12px;&quot; color=&quot;#000000&quot;&gt;&lt;b&gt;&lt;span style=&quot;&quot;&gt;Spring Pressure&lt;br&gt;&lt;/span&gt;Regulator&lt;/b&gt;&lt;/font&gt;" style="text;html=1;align=center;verticalAlign=middle;resizable=0;points=[];autosize=1;strokeColor=none;fillColor=none;fontSize=12;fontColor=#EA6B66;" parent="zHZt4pZZvBoSIs4MCXB3-226" vertex="1">
          <mxGeometry x="-5" width="120" height="40" as="geometry" />
        </mxCell>
        <mxCell id="zHZt4pZZvBoSIs4MCXB3-225" value="" style="verticalLabelPosition=bottom;align=center;html=1;verticalAlign=top;pointerEvents=1;dashed=0;shape=mxgraph.pid2valves.valve;valveType=gate;actuator=diaph;strokeColor=#000000;strokeWidth=2;fontSize=11;fontColor=#000000;fillColor=#FFFFFF;gradientColor=none;" parent="zHZt4pZZvBoSIs4MCXB3-226" vertex="1">
          <mxGeometry x="135" width="40" height="43.56902356902357" as="geometry" />
        </mxCell>
        <mxCell id="zHZt4pZZvBoSIs4MCXB3-231" value="" style="group" parent="zHZt4pZZvBoSIs4MCXB3-253" vertex="1" connectable="0">
          <mxGeometry x="30" y="320.5481986531986" width="180" height="39.61513468013456" as="geometry" />
        </mxCell>
        <mxCell id="zHZt4pZZvBoSIs4MCXB3-227" value="" style="verticalLabelPosition=bottom;align=center;html=1;verticalAlign=top;pointerEvents=1;dashed=0;shape=mxgraph.pid2valves.valve;valveType=check;strokeColor=#000000;strokeWidth=2;fontSize=12;fontColor=#000000;fillColor=#FFFFFF;gradientColor=none;" parent="zHZt4pZZvBoSIs4MCXB3-231" vertex="1">
          <mxGeometry x="140" width="40" height="39.61513468013467" as="geometry" />
        </mxCell>
        <mxCell id="zHZt4pZZvBoSIs4MCXB3-229" value="&lt;font color=&quot;#000000&quot;&gt;&lt;b&gt;Non-return Valve&lt;/b&gt;&lt;/font&gt;" style="text;html=1;align=center;verticalAlign=middle;resizable=0;points=[];autosize=1;strokeColor=none;fillColor=none;fontSize=12;fontColor=#EA6B66;" parent="zHZt4pZZvBoSIs4MCXB3-231" vertex="1">
          <mxGeometry y="3.463737373737443" width="120" height="30" as="geometry" />
        </mxCell>
        <mxCell id="zHZt4pZZvBoSIs4MCXB3-241" value="" style="group" parent="zHZt4pZZvBoSIs4MCXB3-253" vertex="1" connectable="0">
          <mxGeometry x="20" y="382.86279461279463" width="190" height="32.676767676767675" as="geometry" />
        </mxCell>
        <mxCell id="zHZt4pZZvBoSIs4MCXB3-236" style="edgeStyle=orthogonalEdgeStyle;rounded=0;orthogonalLoop=1;jettySize=auto;html=1;shadow=0;strokeColor=#000000;strokeWidth=2;fontSize=18;fontColor=#000000;endArrow=none;endFill=0;" parent="zHZt4pZZvBoSIs4MCXB3-241" source="zHZt4pZZvBoSIs4MCXB3-234" edge="1">
          <mxGeometry relative="1" as="geometry">
            <mxPoint x="190" y="16.338383838383837" as="targetPoint" />
            <Array as="points">
              <mxPoint x="190" y="16.338383838383837" />
              <mxPoint x="190" y="16.338383838383837" />
            </Array>
          </mxGeometry>
        </mxCell>
        <mxCell id="zHZt4pZZvBoSIs4MCXB3-234" value="&lt;font color=&quot;#000000&quot;&gt;P&lt;/font&gt;&lt;br&gt; " style="html=1;outlineConnect=0;align=center;dashed=0;aspect=fixed;shape=mxgraph.pid2inst.discInst;mounting=field;strokeColor=default;strokeWidth=2;fontSize=11;fontColor=#FFFFFF;fillColor=#FFFFFF;gradientColor=none;" parent="zHZt4pZZvBoSIs4MCXB3-241" vertex="1">
          <mxGeometry x="150" width="28.67060561299852" height="28.67060561299852" as="geometry" />
        </mxCell>
        <mxCell id="zHZt4pZZvBoSIs4MCXB3-240" value="&lt;font color=&quot;#000000&quot;&gt;&lt;b&gt;Pressure Transducer&lt;br&gt;&lt;/b&gt;&lt;/font&gt;" style="text;html=1;align=center;verticalAlign=middle;resizable=0;points=[];autosize=1;strokeColor=none;fillColor=none;fontSize=12;fontColor=#EA6B66;" parent="zHZt4pZZvBoSIs4MCXB3-241" vertex="1">
          <mxGeometry width="140" height="30" as="geometry" />
        </mxCell>
        <mxCell id="zHZt4pZZvBoSIs4MCXB3-242" value="&lt;b&gt;Tube Sizes:&lt;/b&gt;" style="text;html=1;align=center;verticalAlign=middle;resizable=0;points=[];autosize=1;strokeColor=none;fillColor=none;fontSize=18;fontColor=#000000;" parent="zHZt4pZZvBoSIs4MCXB3-253" vertex="1">
          <mxGeometry y="448.728265993266" width="120" height="40" as="geometry" />
        </mxCell>
        <mxCell id="zHZt4pZZvBoSIs4MCXB3-198" value="&lt;font style=&quot;font-size: 14px;&quot; color=&quot;#000000&quot;&gt;&lt;b&gt;Servo Valve&amp;nbsp;&lt;/b&gt;&lt;/font&gt;" style="text;html=1;align=center;verticalAlign=middle;resizable=0;points=[];autosize=1;strokeColor=none;fillColor=none;fontSize=12;fontColor=#EA6B66;" parent="zHZt4pZZvBoSIs4MCXB3-253" vertex="1">
          <mxGeometry x="35" y="78.39156565656567" width="110" height="30" as="geometry" />
        </mxCell>
        <mxCell id="zHZt4pZZvBoSIs4MCXB3-209" value="" style="group;strokeWidth=1;strokeColor=none;" parent="zHZt4pZZvBoSIs4MCXB3-253" vertex="1" connectable="0">
          <mxGeometry x="170" y="78.39156565656567" width="39.99999999999994" height="32.676767676767675" as="geometry" />
        </mxCell>
        <mxCell id="zHZt4pZZvBoSIs4MCXB3-200" value="" style="verticalLabelPosition=bottom;align=center;html=1;verticalAlign=top;pointerEvents=1;dashed=0;shape=mxgraph.pid2valves.valve;valveType=ball;rotation=-180;fillColor=#FFFFFF;strokeWidth=2;" parent="zHZt4pZZvBoSIs4MCXB3-209" vertex="1">
          <mxGeometry y="1.8153759820426074" width="39.99999999999996" height="29.046015712682376" as="geometry" />
        </mxCell>
        <mxCell id="zHZt4pZZvBoSIs4MCXB3-201" value="&lt;font color=&quot;#000000&quot; style=&quot;font-size: 8px;&quot;&gt;M&lt;/font&gt;" style="text;html=1;align=center;verticalAlign=middle;resizable=0;points=[];autosize=1;strokeColor=none;fillColor=none;fontSize=10;fontColor=#FFFFFF;" parent="zHZt4pZZvBoSIs4MCXB3-209" vertex="1">
          <mxGeometry x="5" width="30" height="30" as="geometry" />
        </mxCell>
        <mxCell id="zHZt4pZZvBoSIs4MCXB3-250" value="" style="group" parent="zHZt4pZZvBoSIs4MCXB3-253" vertex="1" connectable="0">
          <mxGeometry x="27.5" y="526.0632828282828" width="195" height="43.56902356902357" as="geometry" />
        </mxCell>
        <mxCell id="zHZt4pZZvBoSIs4MCXB3-245" value="" style="edgeStyle=none;orthogonalLoop=1;jettySize=auto;html=1;rounded=0;shadow=0;strokeColor=#000000;strokeWidth=2;fontSize=18;fontColor=#000000;endArrow=none;endFill=0;startArrow=none;startFill=0;" parent="zHZt4pZZvBoSIs4MCXB3-250" edge="1">
          <mxGeometry width="80" relative="1" as="geometry">
            <mxPoint x="130" y="21.425067340067418" as="sourcePoint" />
            <mxPoint y="21.425067340067418" as="targetPoint" />
            <Array as="points" />
          </mxGeometry>
        </mxCell>
        <mxCell id="zHZt4pZZvBoSIs4MCXB3-248" value="&lt;font style=&quot;font-size: 14px;&quot;&gt;3/8&quot;&lt;/font&gt;" style="text;html=1;align=center;verticalAlign=middle;resizable=0;points=[];autosize=1;strokeColor=none;fillColor=none;fontSize=18;fontColor=#000000;" parent="zHZt4pZZvBoSIs4MCXB3-250" vertex="1">
          <mxGeometry x="145" width="50" height="40" as="geometry" />
        </mxCell>
        <mxCell id="zHZt4pZZvBoSIs4MCXB3-251" value="" style="group" parent="zHZt4pZZvBoSIs4MCXB3-253" vertex="1" connectable="0">
          <mxGeometry x="27.5" y="558.7400505050506" width="195" height="43.56902356902357" as="geometry" />
        </mxCell>
        <mxCell id="zHZt4pZZvBoSIs4MCXB3-243" value="" style="edgeStyle=none;orthogonalLoop=1;jettySize=auto;html=1;rounded=0;shadow=0;strokeColor=#000000;strokeWidth=4;fontSize=18;fontColor=#000000;endArrow=none;endFill=0;startArrow=none;startFill=0;dashed=1;dashPattern=1 1;" parent="zHZt4pZZvBoSIs4MCXB3-251" edge="1">
          <mxGeometry width="80" relative="1" as="geometry">
            <mxPoint x="130" y="21.784511784511785" as="sourcePoint" />
            <mxPoint y="21.784511784511785" as="targetPoint" />
            <Array as="points" />
          </mxGeometry>
        </mxCell>
        <mxCell id="zHZt4pZZvBoSIs4MCXB3-247" value="&lt;font style=&quot;font-size: 14px;&quot;&gt;1/2&quot;&lt;/font&gt;" style="text;html=1;align=center;verticalAlign=middle;resizable=0;points=[];autosize=1;strokeColor=none;fillColor=none;fontSize=18;fontColor=#000000;" parent="zHZt4pZZvBoSIs4MCXB3-251" vertex="1">
          <mxGeometry x="145" width="50" height="40" as="geometry" />
        </mxCell>
        <mxCell id="zHZt4pZZvBoSIs4MCXB3-252" value="" style="group;dashed=1;dashPattern=1 1;" parent="zHZt4pZZvBoSIs4MCXB3-253" vertex="1" connectable="0">
          <mxGeometry x="27.5" y="492.2972895622896" width="195" height="43.56902356902357" as="geometry" />
        </mxCell>
        <mxCell id="zHZt4pZZvBoSIs4MCXB3-246" value="" style="edgeStyle=none;orthogonalLoop=1;jettySize=auto;html=1;rounded=0;shadow=0;strokeColor=#000000;strokeWidth=2;fontSize=18;fontColor=#000000;endArrow=none;endFill=0;startArrow=none;startFill=0;dashed=1;dashPattern=1 1;" parent="zHZt4pZZvBoSIs4MCXB3-252" edge="1">
          <mxGeometry width="80" relative="1" as="geometry">
            <mxPoint x="130" y="21.784511784511785" as="sourcePoint" />
            <mxPoint y="22.873737373737374" as="targetPoint" />
            <Array as="points" />
          </mxGeometry>
        </mxCell>
        <mxCell id="zHZt4pZZvBoSIs4MCXB3-249" value="&lt;font style=&quot;font-size: 14px;&quot;&gt;1/4&quot;&lt;/font&gt;" style="text;html=1;align=center;verticalAlign=middle;resizable=0;points=[];autosize=1;strokeColor=none;fillColor=none;fontSize=18;fontColor=#000000;" parent="zHZt4pZZvBoSIs4MCXB3-252" vertex="1">
          <mxGeometry x="145" width="50" height="40" as="geometry" />
        </mxCell>
        <mxCell id="zHZt4pZZvBoSIs4MCXB3-195" value="&lt;font color=&quot;#000000&quot; style=&quot;font-size: 12px;&quot;&gt;&lt;b style=&quot;&quot;&gt;Date: October 2022&lt;/b&gt;&lt;/font&gt;" style="text;html=1;align=left;verticalAlign=middle;resizable=0;points=[];autosize=1;strokeColor=none;fillColor=none;fontSize=11;fontColor=#FFFFFF;strokeWidth=3;" parent="zHZt4pZZvBoSIs4MCXB3-259" vertex="1">
          <mxGeometry x="10.000000000000014" y="6.5353535353535355" width="130" height="30" as="geometry" />
        </mxCell>
        <mxCell id="zHZt4pZZvBoSIs4MCXB3-255" value="" style="edgeStyle=none;orthogonalLoop=1;jettySize=auto;html=1;rounded=0;shadow=0;strokeColor=#000000;strokeWidth=4;fontSize=18;fontColor=#000000;startArrow=none;startFill=0;endArrow=none;endFill=0;entryX=1.001;entryY=0.107;entryDx=0;entryDy=0;entryPerimeter=0;exitX=-0.005;exitY=0.111;exitDx=0;exitDy=0;exitPerimeter=0;" parent="zHZt4pZZvBoSIs4MCXB3-259" source="zHZt4pZZvBoSIs4MCXB3-254" target="zHZt4pZZvBoSIs4MCXB3-254" edge="1">
          <mxGeometry width="80" relative="1" as="geometry">
            <mxPoint x="1.4210854715202004e-14" y="72.94543771043774" as="sourcePoint" />
            <mxPoint x="250" y="72.94543771043774" as="targetPoint" />
            <Array as="points" />
          </mxGeometry>
        </mxCell>
        <mxCell id="zHZt4pZZvBoSIs4MCXB3-262" value="" style="group" parent="1" vertex="1" connectable="0">
          <mxGeometry x="693.6600000000002" y="1377.675" width="30" height="31.710000000000036" as="geometry" />
        </mxCell>
        <mxCell id="zHZt4pZZvBoSIs4MCXB3-188" value="" style="group;fillColor=default;strokeColor=none;container=0;" parent="zHZt4pZZvBoSIs4MCXB3-262" vertex="1" connectable="0">
          <mxGeometry width="30" height="31.710000000000036" as="geometry" />
        </mxCell>
        <mxCell id="zHZt4pZZvBoSIs4MCXB3-12" value="" style="verticalLabelPosition=bottom;align=center;html=1;verticalAlign=top;pointerEvents=1;dashed=0;shape=mxgraph.pid2valves.valve;valveType=ball;rotation=-90;fillColor=#4EA69A;" parent="zHZt4pZZvBoSIs4MCXB3-262" vertex="1">
          <mxGeometry x="-1.1368683772161603e-13" y="5.855000000000018" width="31.71" height="20" as="geometry" />
        </mxCell>
        <mxCell id="zHZt4pZZvBoSIs4MCXB3-157" value="&lt;font style=&quot;font-size: 8px;&quot;&gt;M&lt;/font&gt;" style="text;html=1;align=center;verticalAlign=middle;resizable=0;points=[];autosize=1;strokeColor=none;fillColor=none;fontSize=10;fontColor=#FFFFFF;" parent="zHZt4pZZvBoSIs4MCXB3-262" vertex="1">
          <mxGeometry y="0.8550000000000182" width="30" height="30" as="geometry" />
        </mxCell>
        <mxCell id="-7D4OBWuc_-icSirQ-0--1" value="" style="edgeStyle=orthogonalEdgeStyle;rounded=0;orthogonalLoop=1;jettySize=auto;html=1;endArrow=none;endFill=0;" parent="1" source="zHZt4pZZvBoSIs4MCXB3-158" target="zHZt4pZZvBoSIs4MCXB3-20" edge="1">
          <mxGeometry relative="1" as="geometry" />
        </mxCell>
        <mxCell id="-7D4OBWuc_-icSirQ-0--7" style="edgeStyle=orthogonalEdgeStyle;rounded=0;orthogonalLoop=1;jettySize=auto;html=1;entryX=0.498;entryY=0.449;entryDx=0;entryDy=0;entryPerimeter=0;shadow=0;strokeColor=#B3B3B3;strokeWidth=3;fontSize=11;fontColor=#FFFFFF;endArrow=none;endFill=0;startArrow=none;" parent="1" source="-7D4OBWuc_-icSirQ-0--17" edge="1">
          <mxGeometry relative="1" as="geometry">
            <mxPoint x="759.2700000000002" y="1400.53" as="targetPoint" />
          </mxGeometry>
        </mxCell>
        <mxCell id="-7D4OBWuc_-icSirQ-0--8" value="P3&lt;br&gt; " style="html=1;outlineConnect=0;align=center;dashed=0;aspect=fixed;shape=mxgraph.pid2inst.discInst;mounting=field;strokeColor=default;strokeWidth=2;fontSize=11;fontColor=#FFFFFF;fillColor=#B3B3B3;gradientColor=none;" parent="1" vertex="1">
          <mxGeometry x="744.2700000000002" y="1320.53" width="30" height="30" as="geometry" />
        </mxCell>
        <mxCell id="-7D4OBWuc_-icSirQ-0--11" value="" style="verticalLabelPosition=bottom;align=center;html=1;verticalAlign=top;pointerEvents=1;dashed=0;shape=mxgraph.pid2valves.valve;valveType=check;rotation=-180;fillColor=#7EA6E0;strokeColor=#7EA6E0;strokeWidth=3;" parent="1" vertex="1">
          <mxGeometry x="809.5000000000001" y="970" width="30" height="20" as="geometry" />
        </mxCell>
        <mxCell id="-7D4OBWuc_-icSirQ-0--13" style="edgeStyle=orthogonalEdgeStyle;rounded=0;orthogonalLoop=1;jettySize=auto;html=1;shadow=0;strokeColor=#B3B3B3;strokeWidth=3;fontSize=11;fontColor=#FFFFFF;endArrow=none;endFill=0;" parent="1" edge="1">
          <mxGeometry relative="1" as="geometry">
            <mxPoint x="763.1875" y="940.53" as="sourcePoint" />
            <mxPoint x="763" y="980" as="targetPoint" />
          </mxGeometry>
        </mxCell>
        <mxCell id="-7D4OBWuc_-icSirQ-0--10" value="P5&lt;br&gt; " style="html=1;outlineConnect=0;align=center;dashed=0;aspect=fixed;shape=mxgraph.pid2inst.discInst;mounting=field;strokeColor=default;strokeWidth=2;fontSize=11;fontColor=#FFFFFF;fillColor=#B3B3B3;gradientColor=none;" parent="1" vertex="1">
          <mxGeometry x="748.2700000000002" y="920" width="30" height="30" as="geometry" />
        </mxCell>
        <mxCell id="zHZt4pZZvBoSIs4MCXB3-89" value="" style="shape=waypoint;sketch=0;size=6;pointerEvents=1;points=[];fillColor=none;resizable=0;rotatable=0;perimeter=centerPerimeter;snapToPoint=1;" parent="1" vertex="1">
          <mxGeometry x="742.2700000000001" y="960" width="40" height="40" as="geometry" />
        </mxCell>
        <mxCell id="zHZt4pZZvBoSIs4MCXB3-109" value="" style="shape=waypoint;sketch=0;size=6;pointerEvents=1;points=[];fillColor=none;resizable=0;rotatable=0;perimeter=centerPerimeter;snapToPoint=1;" parent="1" vertex="1">
          <mxGeometry x="944.2200000000001" y="1253.53" width="40" height="40" as="geometry" />
        </mxCell>
        <mxCell id="zHZt4pZZvBoSIs4MCXB3-63" value="" style="shape=waypoint;sketch=0;size=6;pointerEvents=1;points=[];fillColor=none;resizable=0;rotatable=0;perimeter=centerPerimeter;snapToPoint=1;" parent="1" vertex="1">
          <mxGeometry x="532.7700000000001" y="1253.53" width="40" height="40" as="geometry" />
        </mxCell>
        <mxCell id="zHZt4pZZvBoSIs4MCXB3-127" value="" style="shape=waypoint;sketch=0;size=6;pointerEvents=1;points=[];fillColor=none;resizable=0;rotatable=0;perimeter=centerPerimeter;snapToPoint=1;" parent="1" vertex="1">
          <mxGeometry x="689.5100000000001" y="1420" width="40" height="40" as="geometry" />
        </mxCell>
        <mxCell id="-7D4OBWuc_-icSirQ-0--18" value="" style="edgeStyle=orthogonalEdgeStyle;rounded=0;orthogonalLoop=1;jettySize=auto;html=1;entryDx=0;entryDy=0;entryPerimeter=0;shadow=0;strokeColor=#B3B3B3;strokeWidth=3;fontSize=11;fontColor=#FFFFFF;endArrow=none;endFill=0;" parent="1" source="-7D4OBWuc_-icSirQ-0--8" target="-7D4OBWuc_-icSirQ-0--17" edge="1">
          <mxGeometry relative="1" as="geometry">
            <mxPoint x="759.2700000000002" y="1400.53" as="targetPoint" />
            <mxPoint x="759.2700000000002" y="1350.53" as="sourcePoint" />
          </mxGeometry>
        </mxCell>
        <mxCell id="-7D4OBWuc_-icSirQ-0--17" value="" style="shape=waypoint;sketch=0;size=6;pointerEvents=1;points=[];fillColor=none;resizable=0;rotatable=0;perimeter=centerPerimeter;snapToPoint=1;" parent="1" vertex="1">
          <mxGeometry x="739.6600000000001" y="1380.32" width="40" height="40" as="geometry" />
        </mxCell>
        <mxCell id="XdWb99oWSXPAjIpHHQYv-1" value="" style="group;rotation=-90;" parent="1" vertex="1" connectable="0">
          <mxGeometry x="748.41" y="1060" width="31.710000000000036" height="30" as="geometry" />
        </mxCell>
        <mxCell id="XdWb99oWSXPAjIpHHQYv-2" value="" style="verticalLabelPosition=bottom;align=center;html=1;verticalAlign=top;pointerEvents=1;dashed=0;shape=mxgraph.pid2valves.valve;valveType=ball;rotation=-90;fillColor=#7EA6E0;" parent="XdWb99oWSXPAjIpHHQYv-1" vertex="1">
          <mxGeometry y="5" width="31.71" height="20" as="geometry" />
        </mxCell>
        <mxCell id="XdWb99oWSXPAjIpHHQYv-3" value="&lt;font style=&quot;font-size: 8px;&quot;&gt;M&lt;/font&gt;" style="text;html=1;align=center;verticalAlign=middle;resizable=0;points=[];autosize=1;strokeColor=none;fillColor=none;fontSize=10;fontColor=#FFFFFF;rotation=-90;" parent="XdWb99oWSXPAjIpHHQYv-1" vertex="1">
          <mxGeometry x="1" y="1" width="30" height="30" as="geometry" />
        </mxCell>
        <mxCell id="XdWb99oWSXPAjIpHHQYv-9" style="edgeStyle=orthogonalEdgeStyle;rounded=0;orthogonalLoop=1;jettySize=auto;html=1;entryX=-0.016;entryY=0.72;entryDx=0;entryDy=0;entryPerimeter=0;dashed=1;endArrow=none;endFill=0;strokeWidth=2;dashPattern=1 1;" parent="1" source="XdWb99oWSXPAjIpHHQYv-3" target="zHZt4pZZvBoSIs4MCXB3-83" edge="1">
          <mxGeometry relative="1" as="geometry" />
        </mxCell>
        <mxCell id="XdWb99oWSXPAjIpHHQYv-10" value="" style="verticalLabelPosition=bottom;align=center;html=1;verticalAlign=top;pointerEvents=1;dashed=0;shape=mxgraph.pid2valves.valve;valveType=gate;actuator=spring;rotation=-90;fillColor=#7EA6E0;" parent="1" vertex="1">
          <mxGeometry x="677.7700000000002" y="1015.0000000000001" width="25" height="30" as="geometry" />
        </mxCell>
        <mxCell id="XdWb99oWSXPAjIpHHQYv-13" style="edgeStyle=orthogonalEdgeStyle;rounded=0;orthogonalLoop=1;jettySize=auto;html=1;dashed=1;dashPattern=1 1;strokeWidth=2;endArrow=none;endFill=0;" parent="1" source="XdWb99oWSXPAjIpHHQYv-11" target="zHZt4pZZvBoSIs4MCXB3-89" edge="1">
          <mxGeometry relative="1" as="geometry" />
        </mxCell>
        <mxCell id="XdWb99oWSXPAjIpHHQYv-14" style="edgeStyle=orthogonalEdgeStyle;rounded=0;orthogonalLoop=1;jettySize=auto;html=1;entryX=1.056;entryY=0.646;entryDx=0;entryDy=0;entryPerimeter=0;dashed=1;dashPattern=1 1;strokeWidth=2;endArrow=none;endFill=0;" parent="1" source="XdWb99oWSXPAjIpHHQYv-11" target="XdWb99oWSXPAjIpHHQYv-10" edge="1">
          <mxGeometry relative="1" as="geometry" />
        </mxCell>
        <mxCell id="XdWb99oWSXPAjIpHHQYv-11" value="" style="shape=waypoint;sketch=0;size=6;pointerEvents=1;points=[];fillColor=none;resizable=0;rotatable=0;perimeter=centerPerimeter;snapToPoint=1;" parent="1" vertex="1">
          <mxGeometry x="674.5100000000001" y="960" width="40" height="40" as="geometry" />
        </mxCell>
        <mxCell id="XdWb99oWSXPAjIpHHQYv-12" style="edgeStyle=orthogonalEdgeStyle;rounded=0;orthogonalLoop=1;jettySize=auto;html=1;dashed=1;dashPattern=1 1;strokeWidth=2;endArrow=none;endFill=0;" parent="1" source="zHZt4pZZvBoSIs4MCXB3-91" target="XdWb99oWSXPAjIpHHQYv-11" edge="1">
          <mxGeometry relative="1" as="geometry" />
        </mxCell>
      </root>
    </mxGraphModel>
  </diagram>
</mxfile>
